<mxfile host="app.diagrams.net" modified="2023-09-25T10:15:11.508Z" agent="Mozilla/5.0 (Windows NT 10.0; Win64; x64) AppleWebKit/537.36 (KHTML, like Gecko) Chrome/116.0.0.0 Safari/537.36" etag="Yw6nkS6p9SgUHeay9clL" version="21.7.5" type="github">
  <diagram name="Page-1" id="5f0bae14-7c28-e335-631c-24af17079c00">
    <mxGraphModel dx="1687" dy="1742" grid="1" gridSize="10" guides="1" tooltips="1" connect="1" arrows="1" fold="1" page="1" pageScale="1" pageWidth="1100" pageHeight="850" background="none" math="0" shadow="0">
      <root>
        <mxCell id="0" />
        <mxCell id="1" parent="0" />
        <mxCell id="39150e848f15840c-1" value="ZC" style="verticalAlign=top;align=left;spacingTop=8;spacingLeft=2;spacingRight=12;shape=cube;size=10;direction=south;fontStyle=4;html=1;rounded=0;shadow=0;comic=0;labelBackgroundColor=none;strokeWidth=1;fontFamily=Verdana;fontSize=12" parent="1" vertex="1">
          <mxGeometry x="40" y="40" width="360" height="220" as="geometry" />
        </mxCell>
        <mxCell id="gCKSwxHr6gFbuDcbhf19-6" style="edgeStyle=orthogonalEdgeStyle;rounded=0;orthogonalLoop=1;jettySize=auto;html=1;entryX=0.15;entryY=0.04;entryDx=0;entryDy=0;entryPerimeter=0;" edge="1" parent="1" source="39150e848f15840c-5" target="gCKSwxHr6gFbuDcbhf19-3">
          <mxGeometry relative="1" as="geometry" />
        </mxCell>
        <mxCell id="39150e848f15840c-5" value="MIB" style="shape=component;align=center;spacingLeft=36;rounded=0;shadow=0;comic=0;labelBackgroundColor=none;strokeWidth=1;fontFamily=Verdana;fontSize=12;html=1;" parent="1" vertex="1">
          <mxGeometry x="59" y="80" width="90" height="50" as="geometry" />
        </mxCell>
        <mxCell id="gCKSwxHr6gFbuDcbhf19-9" style="edgeStyle=orthogonalEdgeStyle;rounded=0;orthogonalLoop=1;jettySize=auto;html=1;entryX=0.523;entryY=0.04;entryDx=0;entryDy=0;entryPerimeter=0;" edge="1" parent="1" source="gCKSwxHr6gFbuDcbhf19-1" target="gCKSwxHr6gFbuDcbhf19-3">
          <mxGeometry relative="1" as="geometry" />
        </mxCell>
        <mxCell id="gCKSwxHr6gFbuDcbhf19-1" value="SIB" style="shape=component;align=center;spacingLeft=36;rounded=0;shadow=0;comic=0;labelBackgroundColor=none;strokeWidth=1;fontFamily=Verdana;fontSize=12;html=1;" vertex="1" parent="1">
          <mxGeometry x="171" y="80" width="90" height="50" as="geometry" />
        </mxCell>
        <mxCell id="gCKSwxHr6gFbuDcbhf19-8" style="edgeStyle=orthogonalEdgeStyle;rounded=0;orthogonalLoop=1;jettySize=auto;html=1;exitX=0.5;exitY=1;exitDx=0;exitDy=0;entryX=0.877;entryY=0.04;entryDx=0;entryDy=0;entryPerimeter=0;" edge="1" parent="1" source="gCKSwxHr6gFbuDcbhf19-2" target="gCKSwxHr6gFbuDcbhf19-3">
          <mxGeometry relative="1" as="geometry" />
        </mxCell>
        <mxCell id="gCKSwxHr6gFbuDcbhf19-2" value="SIOB" style="shape=component;align=center;spacingLeft=36;rounded=0;shadow=0;comic=0;labelBackgroundColor=none;strokeWidth=1;fontFamily=Verdana;fontSize=12;html=1;" vertex="1" parent="1">
          <mxGeometry x="277" y="80" width="90" height="50" as="geometry" />
        </mxCell>
        <mxCell id="gCKSwxHr6gFbuDcbhf19-3" value="IMU" style="shape=component;align=center;spacingLeft=36;rounded=0;shadow=0;comic=0;labelBackgroundColor=none;strokeWidth=1;fontFamily=Verdana;fontSize=12;html=1;" vertex="1" parent="1">
          <mxGeometry x="59" y="185" width="300" height="50" as="geometry" />
        </mxCell>
        <mxCell id="gCKSwxHr6gFbuDcbhf19-10" value="CBI" style="verticalAlign=top;align=left;spacingTop=8;spacingLeft=2;spacingRight=12;shape=cube;size=10;direction=south;fontStyle=4;html=1;rounded=0;shadow=0;comic=0;labelBackgroundColor=none;strokeWidth=1;fontFamily=Verdana;fontSize=12" vertex="1" parent="1">
          <mxGeometry x="486" y="40" width="360" height="220" as="geometry" />
        </mxCell>
        <mxCell id="gCKSwxHr6gFbuDcbhf19-11" style="edgeStyle=orthogonalEdgeStyle;rounded=0;orthogonalLoop=1;jettySize=auto;html=1;entryX=0.15;entryY=0.04;entryDx=0;entryDy=0;entryPerimeter=0;" edge="1" parent="1" source="gCKSwxHr6gFbuDcbhf19-12" target="gCKSwxHr6gFbuDcbhf19-17">
          <mxGeometry relative="1" as="geometry" />
        </mxCell>
        <mxCell id="gCKSwxHr6gFbuDcbhf19-12" value="MIB" style="shape=component;align=center;spacingLeft=36;rounded=0;shadow=0;comic=0;labelBackgroundColor=none;strokeWidth=1;fontFamily=Verdana;fontSize=12;html=1;" vertex="1" parent="1">
          <mxGeometry x="505" y="80" width="90" height="50" as="geometry" />
        </mxCell>
        <mxCell id="gCKSwxHr6gFbuDcbhf19-13" style="edgeStyle=orthogonalEdgeStyle;rounded=0;orthogonalLoop=1;jettySize=auto;html=1;entryX=0.523;entryY=0.04;entryDx=0;entryDy=0;entryPerimeter=0;" edge="1" parent="1" source="gCKSwxHr6gFbuDcbhf19-14" target="gCKSwxHr6gFbuDcbhf19-17">
          <mxGeometry relative="1" as="geometry" />
        </mxCell>
        <mxCell id="gCKSwxHr6gFbuDcbhf19-14" value="SIB" style="shape=component;align=center;spacingLeft=36;rounded=0;shadow=0;comic=0;labelBackgroundColor=none;strokeWidth=1;fontFamily=Verdana;fontSize=12;html=1;" vertex="1" parent="1">
          <mxGeometry x="617" y="80" width="90" height="50" as="geometry" />
        </mxCell>
        <mxCell id="gCKSwxHr6gFbuDcbhf19-15" style="edgeStyle=orthogonalEdgeStyle;rounded=0;orthogonalLoop=1;jettySize=auto;html=1;exitX=0.5;exitY=1;exitDx=0;exitDy=0;entryX=0.877;entryY=0.04;entryDx=0;entryDy=0;entryPerimeter=0;" edge="1" parent="1" source="gCKSwxHr6gFbuDcbhf19-16" target="gCKSwxHr6gFbuDcbhf19-17">
          <mxGeometry relative="1" as="geometry" />
        </mxCell>
        <mxCell id="gCKSwxHr6gFbuDcbhf19-16" value="SIOB" style="shape=component;align=center;spacingLeft=36;rounded=0;shadow=0;comic=0;labelBackgroundColor=none;strokeWidth=1;fontFamily=Verdana;fontSize=12;html=1;" vertex="1" parent="1">
          <mxGeometry x="723" y="80" width="90" height="50" as="geometry" />
        </mxCell>
        <mxCell id="gCKSwxHr6gFbuDcbhf19-17" value="IMU" style="shape=component;align=center;spacingLeft=36;rounded=0;shadow=0;comic=0;labelBackgroundColor=none;strokeWidth=1;fontFamily=Verdana;fontSize=12;html=1;" vertex="1" parent="1">
          <mxGeometry x="505" y="185" width="300" height="50" as="geometry" />
        </mxCell>
        <mxCell id="gCKSwxHr6gFbuDcbhf19-19" value="EOCS" style="verticalAlign=top;align=left;spacingTop=8;spacingLeft=2;spacingRight=12;shape=cube;size=10;direction=south;fontStyle=4;html=1;rounded=0;shadow=0;comic=0;labelBackgroundColor=none;strokeWidth=1;fontFamily=Verdana;fontSize=12" vertex="1" parent="1">
          <mxGeometry x="960" y="40" width="520" height="220" as="geometry" />
        </mxCell>
        <mxCell id="gCKSwxHr6gFbuDcbhf19-20" style="edgeStyle=orthogonalEdgeStyle;rounded=0;orthogonalLoop=1;jettySize=auto;html=1;entryX=0.104;entryY=0.02;entryDx=0;entryDy=0;entryPerimeter=0;" edge="1" parent="1" source="gCKSwxHr6gFbuDcbhf19-21" target="gCKSwxHr6gFbuDcbhf19-26">
          <mxGeometry relative="1" as="geometry">
            <Array as="points" />
          </mxGeometry>
        </mxCell>
        <mxCell id="gCKSwxHr6gFbuDcbhf19-21" value="SIGNAL" style="shape=component;align=center;spacingLeft=36;rounded=0;shadow=0;comic=0;labelBackgroundColor=none;strokeWidth=1;fontFamily=Verdana;fontSize=12;html=1;" vertex="1" parent="1">
          <mxGeometry x="979" y="80" width="90" height="50" as="geometry" />
        </mxCell>
        <mxCell id="gCKSwxHr6gFbuDcbhf19-22" style="edgeStyle=orthogonalEdgeStyle;rounded=0;orthogonalLoop=1;jettySize=auto;html=1;entryX=0.351;entryY=0.06;entryDx=0;entryDy=0;entryPerimeter=0;" edge="1" parent="1" source="gCKSwxHr6gFbuDcbhf19-23" target="gCKSwxHr6gFbuDcbhf19-26">
          <mxGeometry relative="1" as="geometry">
            <Array as="points" />
          </mxGeometry>
        </mxCell>
        <mxCell id="gCKSwxHr6gFbuDcbhf19-23" value="SWITCH" style="shape=component;align=center;spacingLeft=36;rounded=0;shadow=0;comic=0;labelBackgroundColor=none;strokeWidth=1;fontFamily=Verdana;fontSize=12;html=1;" vertex="1" parent="1">
          <mxGeometry x="1089" y="80" width="90" height="50" as="geometry" />
        </mxCell>
        <mxCell id="gCKSwxHr6gFbuDcbhf19-24" style="edgeStyle=orthogonalEdgeStyle;rounded=0;orthogonalLoop=1;jettySize=auto;html=1;exitX=0.5;exitY=1;exitDx=0;exitDy=0;" edge="1" parent="1" source="gCKSwxHr6gFbuDcbhf19-25" target="gCKSwxHr6gFbuDcbhf19-26">
          <mxGeometry relative="1" as="geometry">
            <Array as="points">
              <mxPoint x="1245" y="170" />
              <mxPoint x="1245" y="170" />
            </Array>
          </mxGeometry>
        </mxCell>
        <mxCell id="gCKSwxHr6gFbuDcbhf19-25" value="INPUT" style="shape=component;align=center;spacingLeft=36;rounded=0;shadow=0;comic=0;labelBackgroundColor=none;strokeWidth=1;fontFamily=Verdana;fontSize=12;html=1;" vertex="1" parent="1">
          <mxGeometry x="1200" y="80" width="90" height="50" as="geometry" />
        </mxCell>
        <mxCell id="gCKSwxHr6gFbuDcbhf19-26" value="IMU" style="shape=component;align=center;spacingLeft=36;rounded=0;shadow=0;comic=0;labelBackgroundColor=none;strokeWidth=1;fontFamily=Verdana;fontSize=12;html=1;" vertex="1" parent="1">
          <mxGeometry x="979" y="185" width="441" height="50" as="geometry" />
        </mxCell>
        <mxCell id="gCKSwxHr6gFbuDcbhf19-28" style="edgeStyle=orthogonalEdgeStyle;rounded=0;orthogonalLoop=1;jettySize=auto;html=1;exitX=0.5;exitY=1;exitDx=0;exitDy=0;entryX=0.864;entryY=0.06;entryDx=0;entryDy=0;entryPerimeter=0;" edge="1" parent="1" source="gCKSwxHr6gFbuDcbhf19-27" target="gCKSwxHr6gFbuDcbhf19-26">
          <mxGeometry relative="1" as="geometry" />
        </mxCell>
        <mxCell id="gCKSwxHr6gFbuDcbhf19-27" value="OUTPUT" style="shape=component;align=center;spacingLeft=36;rounded=0;shadow=0;comic=0;labelBackgroundColor=none;strokeWidth=1;fontFamily=Verdana;fontSize=12;html=1;" vertex="1" parent="1">
          <mxGeometry x="1315" y="80" width="90" height="50" as="geometry" />
        </mxCell>
        <mxCell id="gCKSwxHr6gFbuDcbhf19-29" value="MTS.Agent" style="verticalAlign=top;align=left;spacingTop=8;spacingLeft=2;spacingRight=12;shape=cube;size=10;direction=south;fontStyle=4;html=1;rounded=0;shadow=0;comic=0;labelBackgroundColor=none;strokeWidth=1;fontFamily=Verdana;fontSize=12" vertex="1" parent="1">
          <mxGeometry x="40" y="315" width="360" height="270" as="geometry" />
        </mxCell>
        <mxCell id="gCKSwxHr6gFbuDcbhf19-42" style="edgeStyle=orthogonalEdgeStyle;rounded=0;orthogonalLoop=1;jettySize=auto;html=1;exitX=0.25;exitY=1;exitDx=0;exitDy=0;entryX=0.919;entryY=0.02;entryDx=0;entryDy=0;entryPerimeter=0;" edge="1" parent="1" source="gCKSwxHr6gFbuDcbhf19-30" target="gCKSwxHr6gFbuDcbhf19-31">
          <mxGeometry relative="1" as="geometry" />
        </mxCell>
        <mxCell id="gCKSwxHr6gFbuDcbhf19-30" value="Log Receiver" style="shape=component;align=center;spacingLeft=36;rounded=0;shadow=0;comic=0;labelBackgroundColor=none;strokeWidth=1;fontFamily=Verdana;fontSize=12;html=1;" vertex="1" parent="1">
          <mxGeometry x="152" y="345" width="136" height="50" as="geometry" />
        </mxCell>
        <mxCell id="gCKSwxHr6gFbuDcbhf19-36" style="edgeStyle=orthogonalEdgeStyle;rounded=0;orthogonalLoop=1;jettySize=auto;html=1;exitX=0.5;exitY=1;exitDx=0;exitDy=0;entryX=0.5;entryY=0;entryDx=0;entryDy=0;" edge="1" parent="1" source="gCKSwxHr6gFbuDcbhf19-31" target="gCKSwxHr6gFbuDcbhf19-34">
          <mxGeometry relative="1" as="geometry" />
        </mxCell>
        <mxCell id="gCKSwxHr6gFbuDcbhf19-37" style="edgeStyle=orthogonalEdgeStyle;rounded=0;orthogonalLoop=1;jettySize=auto;html=1;exitX=1;exitY=0.75;exitDx=0;exitDy=0;entryX=0;entryY=0.3;entryDx=0;entryDy=0;" edge="1" parent="1" source="gCKSwxHr6gFbuDcbhf19-31" target="gCKSwxHr6gFbuDcbhf19-32">
          <mxGeometry relative="1" as="geometry" />
        </mxCell>
        <mxCell id="gCKSwxHr6gFbuDcbhf19-38" style="edgeStyle=orthogonalEdgeStyle;rounded=0;orthogonalLoop=1;jettySize=auto;html=1;exitX=1;exitY=0.25;exitDx=0;exitDy=0;entryX=0;entryY=0.3;entryDx=0;entryDy=0;" edge="1" parent="1" source="gCKSwxHr6gFbuDcbhf19-31" target="gCKSwxHr6gFbuDcbhf19-33">
          <mxGeometry relative="1" as="geometry" />
        </mxCell>
        <mxCell id="gCKSwxHr6gFbuDcbhf19-31" value="Log Decoder" style="shape=component;align=center;spacingLeft=36;rounded=0;shadow=0;comic=0;labelBackgroundColor=none;strokeWidth=1;fontFamily=Verdana;fontSize=12;html=1;" vertex="1" parent="1">
          <mxGeometry x="58" y="425" width="136" height="50" as="geometry" />
        </mxCell>
        <mxCell id="gCKSwxHr6gFbuDcbhf19-39" style="edgeStyle=orthogonalEdgeStyle;rounded=0;orthogonalLoop=1;jettySize=auto;html=1;exitX=0;exitY=0.7;exitDx=0;exitDy=0;entryX=1;entryY=0.75;entryDx=0;entryDy=0;" edge="1" parent="1" source="gCKSwxHr6gFbuDcbhf19-32" target="gCKSwxHr6gFbuDcbhf19-34">
          <mxGeometry relative="1" as="geometry" />
        </mxCell>
        <mxCell id="gCKSwxHr6gFbuDcbhf19-32" value="Log Analyzer" style="shape=component;align=center;spacingLeft=36;rounded=0;shadow=0;comic=0;labelBackgroundColor=none;strokeWidth=1;fontFamily=Verdana;fontSize=12;html=1;" vertex="1" parent="1">
          <mxGeometry x="238" y="507" width="136" height="50" as="geometry" />
        </mxCell>
        <mxCell id="gCKSwxHr6gFbuDcbhf19-33" value="Log Persister" style="shape=component;align=center;spacingLeft=36;rounded=0;shadow=0;comic=0;labelBackgroundColor=none;strokeWidth=1;fontFamily=Verdana;fontSize=12;html=1;" vertex="1" parent="1">
          <mxGeometry x="238" y="423" width="136" height="50" as="geometry" />
        </mxCell>
        <mxCell id="gCKSwxHr6gFbuDcbhf19-43" style="edgeStyle=orthogonalEdgeStyle;rounded=0;orthogonalLoop=1;jettySize=auto;html=1;exitX=0.5;exitY=1;exitDx=0;exitDy=0;entryX=0;entryY=0.75;entryDx=0;entryDy=0;entryPerimeter=0;startArrow=classic;startFill=1;" edge="1" parent="1" source="gCKSwxHr6gFbuDcbhf19-34" target="gCKSwxHr6gFbuDcbhf19-40">
          <mxGeometry relative="1" as="geometry" />
        </mxCell>
        <mxCell id="gCKSwxHr6gFbuDcbhf19-34" value="WCF Service" style="shape=component;align=center;spacingLeft=36;rounded=0;shadow=0;comic=0;labelBackgroundColor=none;strokeWidth=1;fontFamily=Verdana;fontSize=12;html=1;" vertex="1" parent="1">
          <mxGeometry x="58" y="505" width="136" height="50" as="geometry" />
        </mxCell>
        <mxCell id="gCKSwxHr6gFbuDcbhf19-40" value="IMS.Prober" style="verticalAlign=top;align=left;spacingTop=8;spacingLeft=2;spacingRight=12;shape=cube;size=10;direction=south;fontStyle=4;html=1;rounded=0;shadow=0;comic=0;labelBackgroundColor=none;strokeWidth=1;fontFamily=Verdana;fontSize=12" vertex="1" parent="1">
          <mxGeometry x="36" y="680" width="360" height="80" as="geometry" />
        </mxCell>
        <mxCell id="gCKSwxHr6gFbuDcbhf19-41" style="edgeStyle=orthogonalEdgeStyle;rounded=0;orthogonalLoop=1;jettySize=auto;html=1;entryX=0.419;entryY=0.06;entryDx=0;entryDy=0;entryPerimeter=0;" edge="1" parent="1" source="gCKSwxHr6gFbuDcbhf19-3" target="gCKSwxHr6gFbuDcbhf19-30">
          <mxGeometry relative="1" as="geometry" />
        </mxCell>
        <mxCell id="gCKSwxHr6gFbuDcbhf19-44" value="MTS.Agent" style="verticalAlign=top;align=left;spacingTop=8;spacingLeft=2;spacingRight=12;shape=cube;size=10;direction=south;fontStyle=4;html=1;rounded=0;shadow=0;comic=0;labelBackgroundColor=none;strokeWidth=1;fontFamily=Verdana;fontSize=12" vertex="1" parent="1">
          <mxGeometry x="484" y="315" width="360" height="270" as="geometry" />
        </mxCell>
        <mxCell id="gCKSwxHr6gFbuDcbhf19-45" style="edgeStyle=orthogonalEdgeStyle;rounded=0;orthogonalLoop=1;jettySize=auto;html=1;exitX=0.25;exitY=1;exitDx=0;exitDy=0;entryX=0.919;entryY=0.02;entryDx=0;entryDy=0;entryPerimeter=0;" edge="1" parent="1" source="gCKSwxHr6gFbuDcbhf19-46" target="gCKSwxHr6gFbuDcbhf19-50">
          <mxGeometry relative="1" as="geometry" />
        </mxCell>
        <mxCell id="gCKSwxHr6gFbuDcbhf19-46" value="Log Receiver" style="shape=component;align=center;spacingLeft=36;rounded=0;shadow=0;comic=0;labelBackgroundColor=none;strokeWidth=1;fontFamily=Verdana;fontSize=12;html=1;" vertex="1" parent="1">
          <mxGeometry x="596" y="345" width="136" height="50" as="geometry" />
        </mxCell>
        <mxCell id="gCKSwxHr6gFbuDcbhf19-47" style="edgeStyle=orthogonalEdgeStyle;rounded=0;orthogonalLoop=1;jettySize=auto;html=1;exitX=0.5;exitY=1;exitDx=0;exitDy=0;entryX=0.5;entryY=0;entryDx=0;entryDy=0;" edge="1" parent="1" source="gCKSwxHr6gFbuDcbhf19-50" target="gCKSwxHr6gFbuDcbhf19-55">
          <mxGeometry relative="1" as="geometry" />
        </mxCell>
        <mxCell id="gCKSwxHr6gFbuDcbhf19-48" style="edgeStyle=orthogonalEdgeStyle;rounded=0;orthogonalLoop=1;jettySize=auto;html=1;exitX=1;exitY=0.75;exitDx=0;exitDy=0;entryX=0;entryY=0.3;entryDx=0;entryDy=0;" edge="1" parent="1" source="gCKSwxHr6gFbuDcbhf19-50" target="gCKSwxHr6gFbuDcbhf19-52">
          <mxGeometry relative="1" as="geometry" />
        </mxCell>
        <mxCell id="gCKSwxHr6gFbuDcbhf19-49" style="edgeStyle=orthogonalEdgeStyle;rounded=0;orthogonalLoop=1;jettySize=auto;html=1;exitX=1;exitY=0.25;exitDx=0;exitDy=0;entryX=0;entryY=0.3;entryDx=0;entryDy=0;" edge="1" parent="1" source="gCKSwxHr6gFbuDcbhf19-50" target="gCKSwxHr6gFbuDcbhf19-53">
          <mxGeometry relative="1" as="geometry" />
        </mxCell>
        <mxCell id="gCKSwxHr6gFbuDcbhf19-50" value="Log Decoder" style="shape=component;align=center;spacingLeft=36;rounded=0;shadow=0;comic=0;labelBackgroundColor=none;strokeWidth=1;fontFamily=Verdana;fontSize=12;html=1;" vertex="1" parent="1">
          <mxGeometry x="502" y="425" width="136" height="50" as="geometry" />
        </mxCell>
        <mxCell id="gCKSwxHr6gFbuDcbhf19-51" style="edgeStyle=orthogonalEdgeStyle;rounded=0;orthogonalLoop=1;jettySize=auto;html=1;exitX=0;exitY=0.7;exitDx=0;exitDy=0;entryX=1;entryY=0.75;entryDx=0;entryDy=0;" edge="1" parent="1" source="gCKSwxHr6gFbuDcbhf19-52" target="gCKSwxHr6gFbuDcbhf19-55">
          <mxGeometry relative="1" as="geometry" />
        </mxCell>
        <mxCell id="gCKSwxHr6gFbuDcbhf19-52" value="Log Analyzer" style="shape=component;align=center;spacingLeft=36;rounded=0;shadow=0;comic=0;labelBackgroundColor=none;strokeWidth=1;fontFamily=Verdana;fontSize=12;html=1;" vertex="1" parent="1">
          <mxGeometry x="682" y="507" width="136" height="50" as="geometry" />
        </mxCell>
        <mxCell id="gCKSwxHr6gFbuDcbhf19-53" value="Log Persister" style="shape=component;align=center;spacingLeft=36;rounded=0;shadow=0;comic=0;labelBackgroundColor=none;strokeWidth=1;fontFamily=Verdana;fontSize=12;html=1;" vertex="1" parent="1">
          <mxGeometry x="682" y="423" width="136" height="50" as="geometry" />
        </mxCell>
        <mxCell id="gCKSwxHr6gFbuDcbhf19-54" style="edgeStyle=orthogonalEdgeStyle;rounded=0;orthogonalLoop=1;jettySize=auto;html=1;exitX=0.5;exitY=1;exitDx=0;exitDy=0;entryX=0;entryY=0.75;entryDx=0;entryDy=0;entryPerimeter=0;startArrow=classic;startFill=1;" edge="1" parent="1" source="gCKSwxHr6gFbuDcbhf19-55" target="gCKSwxHr6gFbuDcbhf19-56">
          <mxGeometry relative="1" as="geometry" />
        </mxCell>
        <mxCell id="gCKSwxHr6gFbuDcbhf19-55" value="WCF Service" style="shape=component;align=center;spacingLeft=36;rounded=0;shadow=0;comic=0;labelBackgroundColor=none;strokeWidth=1;fontFamily=Verdana;fontSize=12;html=1;" vertex="1" parent="1">
          <mxGeometry x="502" y="505" width="136" height="50" as="geometry" />
        </mxCell>
        <mxCell id="gCKSwxHr6gFbuDcbhf19-56" value="IMS.Prober" style="verticalAlign=top;align=left;spacingTop=8;spacingLeft=2;spacingRight=12;shape=cube;size=10;direction=south;fontStyle=4;html=1;rounded=0;shadow=0;comic=0;labelBackgroundColor=none;strokeWidth=1;fontFamily=Verdana;fontSize=12" vertex="1" parent="1">
          <mxGeometry x="480" y="680" width="360" height="80" as="geometry" />
        </mxCell>
        <mxCell id="gCKSwxHr6gFbuDcbhf19-57" value="MTS.Agent" style="verticalAlign=top;align=left;spacingTop=8;spacingLeft=2;spacingRight=12;shape=cube;size=10;direction=south;fontStyle=4;html=1;rounded=0;shadow=0;comic=0;labelBackgroundColor=none;strokeWidth=1;fontFamily=Verdana;fontSize=12" vertex="1" parent="1">
          <mxGeometry x="1034" y="315" width="360" height="270" as="geometry" />
        </mxCell>
        <mxCell id="gCKSwxHr6gFbuDcbhf19-58" style="edgeStyle=orthogonalEdgeStyle;rounded=0;orthogonalLoop=1;jettySize=auto;html=1;exitX=0.25;exitY=1;exitDx=0;exitDy=0;entryX=0.919;entryY=0.02;entryDx=0;entryDy=0;entryPerimeter=0;" edge="1" parent="1" source="gCKSwxHr6gFbuDcbhf19-59" target="gCKSwxHr6gFbuDcbhf19-63">
          <mxGeometry relative="1" as="geometry" />
        </mxCell>
        <mxCell id="gCKSwxHr6gFbuDcbhf19-59" value="Log Receiver" style="shape=component;align=center;spacingLeft=36;rounded=0;shadow=0;comic=0;labelBackgroundColor=none;strokeWidth=1;fontFamily=Verdana;fontSize=12;html=1;" vertex="1" parent="1">
          <mxGeometry x="1146" y="345" width="136" height="50" as="geometry" />
        </mxCell>
        <mxCell id="gCKSwxHr6gFbuDcbhf19-60" style="edgeStyle=orthogonalEdgeStyle;rounded=0;orthogonalLoop=1;jettySize=auto;html=1;exitX=0.5;exitY=1;exitDx=0;exitDy=0;entryX=0.5;entryY=0;entryDx=0;entryDy=0;" edge="1" parent="1" source="gCKSwxHr6gFbuDcbhf19-63" target="gCKSwxHr6gFbuDcbhf19-68">
          <mxGeometry relative="1" as="geometry" />
        </mxCell>
        <mxCell id="gCKSwxHr6gFbuDcbhf19-61" style="edgeStyle=orthogonalEdgeStyle;rounded=0;orthogonalLoop=1;jettySize=auto;html=1;exitX=1;exitY=0.75;exitDx=0;exitDy=0;entryX=0;entryY=0.3;entryDx=0;entryDy=0;" edge="1" parent="1" source="gCKSwxHr6gFbuDcbhf19-63" target="gCKSwxHr6gFbuDcbhf19-65">
          <mxGeometry relative="1" as="geometry" />
        </mxCell>
        <mxCell id="gCKSwxHr6gFbuDcbhf19-62" style="edgeStyle=orthogonalEdgeStyle;rounded=0;orthogonalLoop=1;jettySize=auto;html=1;exitX=1;exitY=0.25;exitDx=0;exitDy=0;entryX=0;entryY=0.3;entryDx=0;entryDy=0;" edge="1" parent="1" source="gCKSwxHr6gFbuDcbhf19-63" target="gCKSwxHr6gFbuDcbhf19-66">
          <mxGeometry relative="1" as="geometry" />
        </mxCell>
        <mxCell id="gCKSwxHr6gFbuDcbhf19-63" value="Log Decoder" style="shape=component;align=center;spacingLeft=36;rounded=0;shadow=0;comic=0;labelBackgroundColor=none;strokeWidth=1;fontFamily=Verdana;fontSize=12;html=1;" vertex="1" parent="1">
          <mxGeometry x="1052" y="425" width="136" height="50" as="geometry" />
        </mxCell>
        <mxCell id="gCKSwxHr6gFbuDcbhf19-64" style="edgeStyle=orthogonalEdgeStyle;rounded=0;orthogonalLoop=1;jettySize=auto;html=1;exitX=0;exitY=0.7;exitDx=0;exitDy=0;entryX=1;entryY=0.75;entryDx=0;entryDy=0;" edge="1" parent="1" source="gCKSwxHr6gFbuDcbhf19-65" target="gCKSwxHr6gFbuDcbhf19-68">
          <mxGeometry relative="1" as="geometry" />
        </mxCell>
        <mxCell id="gCKSwxHr6gFbuDcbhf19-65" value="Log Analyzer" style="shape=component;align=center;spacingLeft=36;rounded=0;shadow=0;comic=0;labelBackgroundColor=none;strokeWidth=1;fontFamily=Verdana;fontSize=12;html=1;" vertex="1" parent="1">
          <mxGeometry x="1232" y="507" width="136" height="50" as="geometry" />
        </mxCell>
        <mxCell id="gCKSwxHr6gFbuDcbhf19-66" value="Log Persister" style="shape=component;align=center;spacingLeft=36;rounded=0;shadow=0;comic=0;labelBackgroundColor=none;strokeWidth=1;fontFamily=Verdana;fontSize=12;html=1;" vertex="1" parent="1">
          <mxGeometry x="1232" y="423" width="136" height="50" as="geometry" />
        </mxCell>
        <mxCell id="gCKSwxHr6gFbuDcbhf19-67" style="edgeStyle=orthogonalEdgeStyle;rounded=0;orthogonalLoop=1;jettySize=auto;html=1;exitX=0.5;exitY=1;exitDx=0;exitDy=0;entryX=0;entryY=0.75;entryDx=0;entryDy=0;entryPerimeter=0;startArrow=classic;startFill=1;" edge="1" parent="1" source="gCKSwxHr6gFbuDcbhf19-68" target="gCKSwxHr6gFbuDcbhf19-69">
          <mxGeometry relative="1" as="geometry" />
        </mxCell>
        <mxCell id="gCKSwxHr6gFbuDcbhf19-68" value="WCF Service" style="shape=component;align=center;spacingLeft=36;rounded=0;shadow=0;comic=0;labelBackgroundColor=none;strokeWidth=1;fontFamily=Verdana;fontSize=12;html=1;" vertex="1" parent="1">
          <mxGeometry x="1052" y="505" width="136" height="50" as="geometry" />
        </mxCell>
        <mxCell id="gCKSwxHr6gFbuDcbhf19-69" value="IMS.Prober" style="verticalAlign=top;align=left;spacingTop=8;spacingLeft=2;spacingRight=12;shape=cube;size=10;direction=south;fontStyle=4;html=1;rounded=0;shadow=0;comic=0;labelBackgroundColor=none;strokeWidth=1;fontFamily=Verdana;fontSize=12" vertex="1" parent="1">
          <mxGeometry x="1030" y="680" width="360" height="80" as="geometry" />
        </mxCell>
        <mxCell id="gCKSwxHr6gFbuDcbhf19-71" style="edgeStyle=orthogonalEdgeStyle;rounded=0;orthogonalLoop=1;jettySize=auto;html=1;entryX=0.5;entryY=0;entryDx=0;entryDy=0;" edge="1" parent="1" source="gCKSwxHr6gFbuDcbhf19-26" target="gCKSwxHr6gFbuDcbhf19-59">
          <mxGeometry relative="1" as="geometry">
            <Array as="points">
              <mxPoint x="1214" y="270" />
              <mxPoint x="1214" y="270" />
            </Array>
          </mxGeometry>
        </mxCell>
        <mxCell id="gCKSwxHr6gFbuDcbhf19-72" value="IMS.DataPusher" style="verticalAlign=top;align=left;spacingTop=8;spacingLeft=2;spacingRight=12;shape=cube;size=10;direction=south;fontStyle=4;html=1;rounded=0;shadow=0;comic=0;labelBackgroundColor=none;strokeWidth=1;fontFamily=Verdana;fontSize=12" vertex="1" parent="1">
          <mxGeometry x="29" y="840" width="1361" height="80" as="geometry" />
        </mxCell>
        <mxCell id="gCKSwxHr6gFbuDcbhf19-73" value="ZC Cabinet" style="shape=umlFrame;whiteSpace=wrap;html=1;pointerEvents=0;width=90;height=30;shadow=0;dashed=1;dashPattern=8 8;" vertex="1" parent="1">
          <mxGeometry x="20" y="-2" width="400" height="620" as="geometry" />
        </mxCell>
        <mxCell id="gCKSwxHr6gFbuDcbhf19-74" value="CBI Cabinet" style="shape=umlFrame;whiteSpace=wrap;html=1;pointerEvents=0;width=90;height=30;shadow=0;dashed=1;dashPattern=8 8;" vertex="1" parent="1">
          <mxGeometry x="466" width="400" height="620" as="geometry" />
        </mxCell>
        <mxCell id="gCKSwxHr6gFbuDcbhf19-75" value="数据库" style="shape=cylinder3;whiteSpace=wrap;html=1;boundedLbl=1;backgroundOutline=1;size=15;" vertex="1" parent="1">
          <mxGeometry x="600" y="1040" width="188" height="80" as="geometry" />
        </mxCell>
        <mxCell id="gCKSwxHr6gFbuDcbhf19-76" value="IMS.WebApi" style="verticalAlign=top;align=left;spacingTop=8;spacingLeft=2;spacingRight=12;shape=cube;size=10;direction=south;fontStyle=4;html=1;rounded=0;shadow=0;comic=0;labelBackgroundColor=none;strokeWidth=1;fontFamily=Verdana;fontSize=12" vertex="1" parent="1">
          <mxGeometry x="506" y="1200" width="360" height="80" as="geometry" />
        </mxCell>
        <mxCell id="gCKSwxHr6gFbuDcbhf19-77" value="IMS.Client" style="verticalAlign=top;align=left;spacingTop=8;spacingLeft=2;spacingRight=12;shape=cube;size=10;direction=south;fontStyle=4;html=1;rounded=0;shadow=0;comic=0;labelBackgroundColor=none;strokeWidth=1;fontFamily=Verdana;fontSize=12" vertex="1" parent="1">
          <mxGeometry x="230" y="1360" width="360" height="80" as="geometry" />
        </mxCell>
        <mxCell id="gCKSwxHr6gFbuDcbhf19-78" value="IMS.Dashboard" style="verticalAlign=top;align=left;spacingTop=8;spacingLeft=2;spacingRight=12;shape=cube;size=10;direction=south;fontStyle=4;html=1;rounded=0;shadow=0;comic=0;labelBackgroundColor=none;strokeWidth=1;fontFamily=Verdana;fontSize=12" vertex="1" parent="1">
          <mxGeometry x="707" y="1360" width="360" height="80" as="geometry" />
        </mxCell>
        <mxCell id="gCKSwxHr6gFbuDcbhf19-79" style="edgeStyle=orthogonalEdgeStyle;rounded=0;orthogonalLoop=1;jettySize=auto;html=1;" edge="1" parent="1" source="gCKSwxHr6gFbuDcbhf19-17">
          <mxGeometry relative="1" as="geometry">
            <mxPoint x="655" y="345" as="targetPoint" />
            <Array as="points">
              <mxPoint x="655" y="345" />
            </Array>
          </mxGeometry>
        </mxCell>
      </root>
    </mxGraphModel>
  </diagram>
</mxfile>
